# WaveFront *.obj file (generated by Autodesk ATF)

mtllib bab3dfb8-1d9e-4649-8cfa-4963bee1e93b.mtl

g Body3

v 2.173280 -8.000000 0.000000
v 2.171000 -1.485300 0.000000
v 4.000000 0.000000 0.000000
v 5.000000 0.000000 0.000000
v 5.000000 -8.000000 0.000000
v 5.000000 0.000000 2.000000
v 5.000000 -8.000000 2.000000
v 4.000000 0.000000 2.000000
v 2.171000 -1.485300 2.000000
v 2.173280 -8.000000 2.000000
vt -2.173280 -4.000000 0.000000
vt -2.171000 2.514700 0.000000
vt -5.000000 -4.000000 0.000000
vt -4.000000 4.000000 0.000000
vt -5.000000 4.000000 0.000000
vt 0.000000 0.000000 0.000000
vt 8.000000 0.000000 0.000000
vt 0.000000 2.000000 0.000000
vt 8.000000 2.000000 0.000000
vt 0.000000 0.000000 0.000000
vt 1.000000 0.000000 0.000000
vt 0.000000 2.000000 0.000000
vt 1.000000 2.000000 0.000000
vt -0.000000 0.000000 0.000000
vt 2.356132 0.000000 0.000000
vt -0.000000 2.000000 0.000000
vt 2.356132 2.000000 0.000000
vt 0.000000 0.000000 0.000000
vt 6.514700 0.000000 0.000000
vt 0.000000 2.000000 0.000000
vt 6.514700 2.000000 0.000000
vt 7.173280 0.000000 0.000000
vt 10.000000 0.000000 0.000000
vt 7.173280 2.000000 0.000000
vt 10.000000 2.000000 0.000000
vt 2.173280 -4.000000 0.000000
vt 5.000000 -4.000000 0.000000
vt 2.171000 2.514700 0.000000
vt 4.000000 4.000000 0.000000
vt 5.000000 4.000000 0.000000
vn -0.000000 -0.000000 -1.000000
vn -0.000000 -0.000000 -1.000000
vn -0.000000 -0.000000 -1.000000
vn -0.000000 -0.000000 -1.000000
vn -0.000000 -0.000000 -1.000000
vn 1.000000 0.000000 0.000000
vn 1.000000 0.000000 0.000000
vn 1.000000 0.000000 0.000000
vn 1.000000 0.000000 0.000000
vn 0.000000 1.000000 -0.000000
vn 0.000000 1.000000 -0.000000
vn 0.000000 1.000000 -0.000000
vn 0.000000 1.000000 -0.000000
vn -0.630398 0.776272 0.000000
vn -0.630398 0.776272 0.000000
vn -0.630398 0.776272 0.000000
vn -0.630398 0.776272 0.000000
vn -1.000000 -0.000350 0.000000
vn -1.000000 -0.000350 0.000000
vn -1.000000 -0.000350 0.000000
vn -1.000000 -0.000350 0.000000
vn 0.000000 -1.000000 0.000000
vn 0.000000 -1.000000 0.000000
vn 0.000000 -1.000000 0.000000
vn 0.000000 -1.000000 0.000000
vn 0.000000 0.000000 1.000000
vn 0.000000 0.000000 1.000000
vn 0.000000 0.000000 1.000000
vn 0.000000 0.000000 1.000000
vn 0.000000 0.000000 1.000000
usemtl Steel_-_Satin
f 1/1/1 2/2/2 5/3/3
f 5/3/3 2/2/2 3/4/4
f 5/3/3 3/4/4 4/5/5
f 5/6/6 4/7/7 7/8/8
f 7/8/8 4/7/7 6/9/9
f 4/10/10 3/11/11 6/12/12
f 6/12/12 3/11/11 8/13/13
f 3/14/14 2/15/15 8/16/16
f 8/16/16 2/15/15 9/17/17
f 2/18/18 1/19/19 9/20/20
f 9/20/20 1/19/19 10/21/21
f 1/22/22 5/23/23 10/24/24
f 10/24/24 5/23/23 7/25/25
f 10/26/26 7/27/27 9/28/28
f 9/28/28 7/27/27 8/29/29
f 8/29/29 7/27/27 6/30/30

g Body4

v -2.173280 -8.000000 2.000000
v -2.171000 -1.485300 2.000000
v -4.000000 0.000000 2.000000
v -5.000000 0.000000 2.000000
v -5.000000 -8.000000 2.000000
v -4.000000 0.000000 0.000000
v -5.000000 0.000000 0.000000
v -5.000000 -8.000000 0.000000
v -2.173280 -8.000000 0.000000
v -2.171000 -1.485300 0.000000
vt -2.173280 -4.000000 0.000000
vt -2.171000 2.514700 0.000000
vt -5.000000 -4.000000 0.000000
vt -4.000000 4.000000 0.000000
vt -5.000000 4.000000 0.000000
vt 0.000000 0.000000 0.000000
vt 1.000000 0.000000 0.000000
vt 0.000000 2.000000 0.000000
vt 1.000000 2.000000 0.000000
vt 0.000000 0.000000 0.000000
vt 8.000000 0.000000 0.000000
vt 0.000000 2.000000 0.000000
vt 8.000000 2.000000 0.000000
vt 2.826720 2.000000 0.000000
vt 0.000000 2.000000 0.000000
vt 2.826720 0.000000 0.000000
vt 0.000000 0.000000 0.000000
vt -0.800000 0.000000 0.000000
vt 5.714700 0.000000 0.000000
vt -0.800000 2.000000 0.000000
vt 5.714700 2.000000 0.000000
vt 0.000000 0.000000 0.000000
vt 2.356132 0.000000 0.000000
vt 0.000000 2.000000 0.000000
vt 2.356132 2.000000 0.000000
vt 2.173280 -4.000000 0.000000
vt 5.000000 -4.000000 0.000000
vt 2.171000 2.514700 0.000000
vt 4.000000 4.000000 0.000000
vt 5.000000 4.000000 0.000000
vn 0.000000 0.000000 1.000000
vn 0.000000 0.000000 1.000000
vn 0.000000 0.000000 1.000000
vn 0.000000 0.000000 1.000000
vn 0.000000 0.000000 1.000000
vn 0.000000 1.000000 -0.000000
vn 0.000000 1.000000 -0.000000
vn 0.000000 1.000000 -0.000000
vn 0.000000 1.000000 -0.000000
vn -1.000000 0.000000 0.000000
vn -1.000000 0.000000 0.000000
vn -1.000000 0.000000 0.000000
vn -1.000000 0.000000 0.000000
vn 0.000000 -1.000000 0.000000
vn 0.000000 -1.000000 0.000000
vn 0.000000 -1.000000 0.000000
vn 0.000000 -1.000000 0.000000
vn 1.000000 -0.000350 0.000000
vn 1.000000 -0.000350 0.000000
vn 1.000000 -0.000350 0.000000
vn 1.000000 -0.000350 0.000000
vn 0.630398 0.776272 -0.000000
vn 0.630398 0.776272 -0.000000
vn 0.630398 0.776272 -0.000000
vn 0.630398 0.776272 -0.000000
vn -0.000000 -0.000000 -1.000000
vn -0.000000 -0.000000 -1.000000
vn -0.000000 -0.000000 -1.000000
vn -0.000000 -0.000000 -1.000000
vn -0.000000 -0.000000 -1.000000
f 11/31/31 12/32/32 15/33/33
f 15/33/33 12/32/32 13/34/34
f 15/33/33 13/34/34 14/35/35
f 16/36/36 17/37/37 13/38/38
f 13/38/38 17/37/37 14/39/39
f 17/40/40 18/41/41 14/42/42
f 14/42/42 18/41/41 15/43/43
f 11/44/44 15/45/45 19/46/46
f 19/46/46 15/45/45 18/47/47
f 19/48/48 20/49/49 11/50/50
f 11/50/50 20/49/49 12/51/51
f 20/52/52 16/53/53 12/54/54
f 12/54/54 16/53/53 13/55/55
f 19/56/56 18/57/57 20/58/58
f 20/58/58 18/57/57 16/59/59
f 16/59/59 18/57/57 17/60/60

g Body5

v -2.173000 -7.200000 0.000000
v -2.173280 -8.000000 0.000000
v -2.173280 -8.000000 2.000000
v -2.173000 -7.200000 2.000000
v 2.173280 -8.000000 2.000000
v 2.173000 -7.200000 2.000000
v 2.173280 -8.000000 0.000000
v 2.173000 -7.200000 0.000000
vt -1.000000 -4.000266 0.000000
vt 1.000000 -4.000266 0.000000
vt -1.000000 -3.200266 0.000000
vt 1.000000 -3.200266 0.000000
vt -2.173280 -4.000000 0.000000
vt 2.173280 -4.000000 0.000000
vt -2.173000 -3.200000 0.000000
vt 2.173000 -3.200000 0.000000
vt 2.826720 0.000000 0.000000
vt 7.173280 0.000000 0.000000
vt 2.826720 2.000000 0.000000
vt 7.173280 2.000000 0.000000
vt -1.000000 -4.000760 0.000000
vt 1.000000 -4.000760 0.000000
vt -1.000000 -3.200760 0.000000
vt 1.000000 -3.200760 0.000000
vt 2.173000 -3.200000 0.000000
vt -2.173000 -3.200000 0.000000
vt 2.173280 -4.000000 0.000000
vt -2.173280 -4.000000 0.000000
vt -0.000000 0.000000 0.000000
vt 4.346000 0.000000 0.000000
vt -0.000000 2.000000 0.000000
vt 4.346000 2.000000 0.000000
vn -1.000000 0.000350 -0.000000
vn -1.000000 0.000350 -0.000000
vn -1.000000 0.000350 -0.000000
vn -1.000000 0.000350 -0.000000
vn 0.000000 0.000000 1.000000
vn 0.000000 0.000000 1.000000
vn 0.000000 0.000000 1.000000
vn 0.000000 0.000000 1.000000
vn 0.000000 -1.000000 0.000000
vn 0.000000 -1.000000 0.000000
vn 0.000000 -1.000000 0.000000
vn 0.000000 -1.000000 0.000000
vn 1.000000 0.000350 -0.000000
vn 1.000000 0.000350 -0.000000
vn 1.000000 0.000350 -0.000000
vn 1.000000 0.000350 -0.000000
vn -0.000000 -0.000000 -1.000000
vn -0.000000 -0.000000 -1.000000
vn -0.000000 -0.000000 -1.000000
vn -0.000000 -0.000000 -1.000000
vn 0.000000 1.000000 0.000000
vn 0.000000 1.000000 0.000000
vn 0.000000 1.000000 0.000000
vn 0.000000 1.000000 0.000000
f 22/61/61 23/62/62 21/63/63
f 21/63/63 23/62/62 24/64/64
f 23/65/65 25/66/66 24/67/67
f 24/67/67 25/66/66 26/68/68
f 22/69/69 27/70/70 23/71/71
f 23/71/71 27/70/70 25/72/72
f 25/73/73 27/74/74 26/75/75
f 26/75/75 27/74/74 28/76/76
f 21/77/77 28/78/78 22/79/79
f 22/79/79 28/78/78 27/80/80
f 28/81/81 21/82/82 26/83/83
f 26/83/83 21/82/82 24/84/84

# 28 vertices
# 84 texture params
# 84 normals
# 44 facets

# 3 groups
