# WaveFront *.obj file (generated by Autodesk ATF)

mtllib b2685b49-80c4-4ab4-ba32-88cfdc695e13.mtl

g Body3

v -1.520000 -8.000000 2.000000
v -2.000000 -3.200000 2.000000
v -4.000000 0.000000 2.000000
v -5.000000 0.000000 2.000000
v -5.000000 -8.000000 2.000000
v -4.000000 0.000000 0.000000
v -5.000000 0.000000 0.000000
v -5.000000 -8.000000 0.000000
v -1.520000 -8.000000 0.000000
v -2.000000 -3.200000 0.000000
vt -1.520000 -4.000000 0.000000
vt -2.000000 0.800000 0.000000
vt -5.000000 -4.000000 0.000000
vt -4.000000 4.000000 0.000000
vt -5.000000 4.000000 0.000000
vt 0.000000 0.000000 0.000000
vt 1.000000 0.000000 0.000000
vt 0.000000 2.000000 0.000000
vt 1.000000 2.000000 0.000000
vt 0.000000 0.000000 0.000000
vt 8.000000 0.000000 0.000000
vt 0.000000 2.000000 0.000000
vt 8.000000 2.000000 0.000000
vt -0.803990 0.000000 0.000000
vt 4.019950 0.000000 0.000000
vt -0.803990 2.000000 0.000000
vt 4.019950 2.000000 0.000000
vt 0.000000 0.000000 0.000000
vt 3.773592 0.000000 0.000000
vt 0.000000 2.000000 0.000000
vt 3.773592 2.000000 0.000000
vt 3.480000 2.000000 0.000000
vt 0.000000 2.000000 0.000000
vt 3.480000 0.000000 0.000000
vt 0.000000 0.000000 0.000000
vt 1.520000 -4.000000 0.000000
vt 5.000000 -4.000000 0.000000
vt 2.000000 0.800000 0.000000
vt 4.000000 4.000000 0.000000
vt 5.000000 4.000000 0.000000
vn 0.000000 0.000000 1.000000
vn 0.000000 0.000000 1.000000
vn 0.000000 0.000000 1.000000
vn 0.000000 0.000000 1.000000
vn 0.000000 0.000000 1.000000
vn 0.000000 1.000000 -0.000000
vn 0.000000 1.000000 -0.000000
vn 0.000000 1.000000 -0.000000
vn 0.000000 1.000000 -0.000000
vn -1.000000 0.000000 0.000000
vn -1.000000 0.000000 0.000000
vn -1.000000 0.000000 0.000000
vn -1.000000 0.000000 0.000000
vn 0.995037 0.099504 -0.000000
vn 0.995037 0.099504 -0.000000
vn 0.995037 0.099504 -0.000000
vn 0.995037 0.099504 -0.000000
vn 0.847998 0.529999 -0.000000
vn 0.847998 0.529999 -0.000000
vn 0.847998 0.529999 -0.000000
vn 0.847998 0.529999 -0.000000
vn 0.000000 -1.000000 0.000000
vn 0.000000 -1.000000 0.000000
vn 0.000000 -1.000000 0.000000
vn 0.000000 -1.000000 0.000000
vn -0.000000 -0.000000 -1.000000
vn -0.000000 -0.000000 -1.000000
vn -0.000000 -0.000000 -1.000000
vn -0.000000 -0.000000 -1.000000
vn -0.000000 -0.000000 -1.000000
usemtl Steel_-_Satin
f 1/1/1 2/2/2 5/3/3
f 5/3/3 2/2/2 3/4/4
f 5/3/3 3/4/4 4/5/5
f 6/6/6 7/7/7 3/8/8
f 3/8/8 7/7/7 4/9/9
f 7/10/10 8/11/11 4/12/12
f 4/12/12 8/11/11 5/13/13
f 9/14/14 10/15/15 1/16/16
f 1/16/16 10/15/15 2/17/17
f 10/18/18 6/19/19 2/20/20
f 2/20/20 6/19/19 3/21/21
f 1/22/22 5/23/23 9/24/24
f 9/24/24 5/23/23 8/25/25
f 9/26/26 8/27/27 10/28/28
f 10/28/28 8/27/27 6/29/29
f 6/29/29 8/27/27 7/30/30

g Body4

v 1.520000 -8.000000 0.000000
v 2.000000 -3.200000 0.000000
v 4.000000 0.000000 0.000000
v 5.000000 0.000000 0.000000
v 5.000000 -8.000000 0.000000
v 1.520000 -8.000000 2.000000
v 5.000000 -8.000000 2.000000
v 5.000000 0.000000 2.000000
v 4.000000 0.000000 2.000000
v 2.000000 -3.200000 2.000000
vt -1.520000 -4.000000 0.000000
vt -2.000000 0.800000 0.000000
vt -5.000000 -4.000000 0.000000
vt -4.000000 4.000000 0.000000
vt -5.000000 4.000000 0.000000
vt 6.520000 0.000000 0.000000
vt 10.000000 0.000000 0.000000
vt 6.520000 2.000000 0.000000
vt 10.000000 2.000000 0.000000
vt 0.000000 0.000000 0.000000
vt 8.000000 0.000000 0.000000
vt 0.000000 2.000000 0.000000
vt 8.000000 2.000000 0.000000
vt 0.000000 0.000000 0.000000
vt 1.000000 0.000000 0.000000
vt 0.000000 2.000000 0.000000
vt 1.000000 2.000000 0.000000
vt -0.000000 0.000000 0.000000
vt 3.773592 0.000000 0.000000
vt -0.000000 2.000000 0.000000
vt 3.773592 2.000000 0.000000
vt -0.000000 0.000000 0.000000
vt 4.823940 0.000000 0.000000
vt -0.000000 2.000000 0.000000
vt 4.823940 2.000000 0.000000
vt 1.520000 -4.000000 0.000000
vt 5.000000 -4.000000 0.000000
vt 2.000000 0.800000 0.000000
vt 4.000000 4.000000 0.000000
vt 5.000000 4.000000 0.000000
vn -0.000000 -0.000000 -1.000000
vn -0.000000 -0.000000 -1.000000
vn -0.000000 -0.000000 -1.000000
vn -0.000000 -0.000000 -1.000000
vn -0.000000 -0.000000 -1.000000
vn 0.000000 -1.000000 0.000000
vn 0.000000 -1.000000 0.000000
vn 0.000000 -1.000000 0.000000
vn 0.000000 -1.000000 0.000000
vn 1.000000 0.000000 0.000000
vn 1.000000 0.000000 0.000000
vn 1.000000 0.000000 0.000000
vn 1.000000 0.000000 0.000000
vn 0.000000 1.000000 -0.000000
vn 0.000000 1.000000 -0.000000
vn 0.000000 1.000000 -0.000000
vn 0.000000 1.000000 -0.000000
vn -0.847998 0.529999 0.000000
vn -0.847998 0.529999 0.000000
vn -0.847998 0.529999 0.000000
vn -0.847998 0.529999 0.000000
vn -0.995037 0.099504 0.000000
vn -0.995037 0.099504 0.000000
vn -0.995037 0.099504 0.000000
vn -0.995037 0.099504 0.000000
vn 0.000000 0.000000 1.000000
vn 0.000000 0.000000 1.000000
vn 0.000000 0.000000 1.000000
vn 0.000000 0.000000 1.000000
vn 0.000000 0.000000 1.000000
f 11/31/31 12/32/32 15/33/33
f 15/33/33 12/32/32 13/34/34
f 15/33/33 13/34/34 14/35/35
f 11/36/36 15/37/37 16/38/38
f 16/38/38 15/37/37 17/39/39
f 15/40/40 14/41/41 17/42/42
f 17/42/42 14/41/41 18/43/43
f 14/44/44 13/45/45 18/46/46
f 18/46/46 13/45/45 19/47/47
f 13/48/48 12/49/49 19/50/50
f 19/50/50 12/49/49 20/51/51
f 12/52/52 11/53/53 20/54/54
f 20/54/54 11/53/53 16/55/55
f 16/56/56 17/57/57 20/58/58
f 20/58/58 17/57/57 19/59/59
f 19/59/59 17/57/57 18/60/60

g Body5

v 1.600000 -7.200000 2.000000
v 1.520000 -8.000000 2.000000
v 1.520000 -8.000000 0.000000
v 1.600000 -7.200000 0.000000
v -1.520000 -8.000000 0.000000
v -1.600000 -7.200000 0.000000
v -1.520000 -8.000000 2.000000
v -1.600000 -7.200000 2.000000
vt -1.000000 -3.998059 0.000000
vt 1.000000 -3.998059 0.000000
vt -1.000000 -3.194069 0.000000
vt 1.000000 -3.194069 0.000000
vt -1.520000 -4.000000 0.000000
vt 1.520000 -4.000000 0.000000
vt -1.600000 -3.200000 0.000000
vt 1.600000 -3.200000 0.000000
vt 6.520000 2.000000 0.000000
vt 3.480000 2.000000 0.000000
vt 6.520000 0.000000 0.000000
vt 3.480000 0.000000 0.000000
vt -1.000000 -3.828903 0.000000
vt 1.000000 -3.828903 0.000000
vt -1.000000 -3.024913 0.000000
vt 1.000000 -3.024913 0.000000
vt 1.600000 -3.200000 0.000000
vt -1.600000 -3.200000 0.000000
vt 1.520000 -4.000000 0.000000
vt -1.520000 -4.000000 0.000000
vt -0.000000 0.000000 0.000000
vt 3.200000 0.000000 0.000000
vt 0.000000 2.000000 0.000000
vt 3.200000 2.000000 0.000000
vn 0.995037 -0.099504 -0.000000
vn 0.995037 -0.099504 -0.000000
vn 0.995037 -0.099504 -0.000000
vn 0.995037 -0.099504 -0.000000
vn -0.000000 -0.000000 -1.000000
vn -0.000000 -0.000000 -1.000000
vn -0.000000 -0.000000 -1.000000
vn -0.000000 -0.000000 -1.000000
vn 0.000000 -1.000000 0.000000
vn 0.000000 -1.000000 0.000000
vn 0.000000 -1.000000 0.000000
vn 0.000000 -1.000000 0.000000
vn -0.995037 -0.099504 0.000000
vn -0.995037 -0.099504 0.000000
vn -0.995037 -0.099504 0.000000
vn -0.995037 -0.099504 0.000000
vn 0.000000 0.000000 1.000000
vn 0.000000 0.000000 1.000000
vn 0.000000 0.000000 1.000000
vn 0.000000 0.000000 1.000000
vn 0.000000 1.000000 0.000000
vn 0.000000 1.000000 0.000000
vn 0.000000 1.000000 0.000000
vn 0.000000 1.000000 0.000000
f 22/61/61 23/62/62 21/63/63
f 21/63/63 23/62/62 24/64/64
f 23/65/65 25/66/66 24/67/67
f 24/67/67 25/66/66 26/68/68
f 22/69/69 27/70/70 23/71/71
f 23/71/71 27/70/70 25/72/72
f 25/73/73 27/74/74 26/75/75
f 26/75/75 27/74/74 28/76/76
f 21/77/77 28/78/78 22/79/79
f 22/79/79 28/78/78 27/80/80
f 24/81/81 26/82/82 21/83/83
f 21/83/83 26/82/82 28/84/84

# 28 vertices
# 84 texture params
# 84 normals
# 44 facets

# 3 groups
